<svg width="26" height="26" viewBox="0 0 26 26" fill="none" xmlns="http://www.w3.org/2000/svg">
<path d="M15.5447 15.2791L17.0123 16.7176M17.0126 18.5771L22.7092 24.1621C23.2332 24.6759 24.083 24.676 24.6071 24.1623C25.1311 23.6487 25.1312 22.816 24.6073 22.3023L18.9106 16.7173C18.3866 16.2035 17.5368 16.2035 17.0127 16.7172C16.4887 17.2308 16.4886 18.0635 17.0126 18.5771Z" stroke="white" stroke-width="1.59702" stroke-linecap="round" stroke-linejoin="round"/>
<path d="M1.29076 7.19469C2.07921 4.31057 4.37765 2.05778 7.3202 1.28498C10.2628 0.512148 13.4026 1.33675 15.5567 3.44807C17.7108 5.55944 18.5521 8.63679 17.7636 11.521C16.9751 14.4051 14.6767 16.6579 11.7341 17.4307C8.79153 18.2035 5.65183 17.3789 3.49767 15.2676C1.34357 13.1562 0.502263 10.0789 1.29076 7.19469Z" stroke="white" stroke-width="1.59702" stroke-linecap="round" stroke-linejoin="round"/>
</svg>
